REM DIRINDEX 1\2\4,1\2\5,1\2\6,1\3\7,1\3\8
REM DIRNAME cjc128,folder01,folder02,folder03,folder04,folder05,folder06,folder07
TITLE ""
FILE "005_Lesson 04_Output_Stage.mp3" MP3
  TRACK 01 AUDIO
    TITLE "0:"
    INDEX 01 00:00:00
  TRACK 02 AUDIO
    TITLE "8:cjc128_2560"
    INDEX 01 00:00:09
  TRACK 03 AUDIO
    TITLE "0:"
    INDEX 01 00:02:73
  TRACK 04 AUDIO
    TITLE "8:cjc128_2561"
    INDEX 01 00:03:12
  TRACK 05 AUDIO
    TITLE "0:"
    INDEX 01 00:04:46
  TRACK 06 AUDIO
    TITLE "7:cjc128_2562"
    INDEX 01 00:05:28
  TRACK 07 AUDIO
    TITLE "0:"
    INDEX 01 00:08:40
  TRACK 08 AUDIO
    TITLE "8:cjc128_2563"
    INDEX 01 00:12:14
  TRACK 09 AUDIO
    TITLE "0:"
    INDEX 01 00:13:43
  TRACK 10 AUDIO
    TITLE "7:cjc128_2564"
    INDEX 01 00:14:19
  TRACK 11 AUDIO
    TITLE "0:"
    INDEX 01 00:17:53
  TRACK 12 AUDIO
    TITLE "8:cjc128_2565"
    INDEX 01 00:21:41
  TRACK 13 AUDIO
    TITLE "0:"
    INDEX 01 00:22:74
  TRACK 14 AUDIO
    TITLE "7:cjc128_2566"
    INDEX 01 00:23:53
  TRACK 15 AUDIO
    TITLE "0:"
    INDEX 01 00:26:05
  TRACK 16 AUDIO
    TITLE "8:cjc128_2567"
    INDEX 01 00:28:64
  TRACK 17 AUDIO
    TITLE "0:"
    INDEX 01 00:30:06
  TRACK 18 AUDIO
    TITLE "7:cjc128_2568"
    INDEX 01 00:30:63
  TRACK 19 AUDIO
    TITLE "0:"
    INDEX 01 00:32:60
  TRACK 20 AUDIO
    TITLE "8:cjc128_2569"
    INDEX 01 00:35:12
  TRACK 21 AUDIO
    TITLE "0:"
    INDEX 01 00:36:46
  TRACK 22 AUDIO
    TITLE "7:cjc128_2570"
    INDEX 01 00:37:26
  TRACK 23 AUDIO
    TITLE "0:"
    INDEX 01 00:39:54
  TRACK 24 AUDIO
    TITLE "8:cjc128_2571"
    INDEX 01 00:42:47
  TRACK 25 AUDIO
    TITLE "0:"
    INDEX 01 00:44:03
  TRACK 26 AUDIO
    TITLE "7:cjc128_2572"
    INDEX 01 00:44:63
  TRACK 27 AUDIO
    TITLE "0:"
    INDEX 01 00:47:27
  TRACK 28 AUDIO
    TITLE "8:cjc128_2573"
    INDEX 01 00:50:31
  TRACK 29 AUDIO
    TITLE "0:"
    INDEX 01 00:51:71
  TRACK 30 AUDIO
    TITLE "7:cjc128_2574"
    INDEX 01 00:52:53
  TRACK 31 AUDIO
    TITLE "0:"
    INDEX 01 00:55:24
  TRACK 32 AUDIO
    TITLE "8:cjc128_2575"
    INDEX 01 00:58:28
  TRACK 33 AUDIO
    TITLE "0:"
    INDEX 01 00:59:69
  TRACK 34 AUDIO
    TITLE "7:cjc128_2576"
    INDEX 01 01:00:53
  TRACK 35 AUDIO
    TITLE "0:"
    INDEX 01 01:03:16
  TRACK 36 AUDIO
    TITLE "8:cjc128_2577"
    INDEX 01 01:06:08
  TRACK 37 AUDIO
    TITLE "0:"
    INDEX 01 01:07:53
  TRACK 38 AUDIO
    TITLE "7:cjc128_2578"
    INDEX 01 01:08:31
  TRACK 39 AUDIO
    TITLE "0:"
    INDEX 01 01:11:29
  TRACK 40 AUDIO
    TITLE "8:cjc128_2579"
    INDEX 01 01:14:68
  TRACK 41 AUDIO
    TITLE "0:"
    INDEX 01 01:16:36
  TRACK 42 AUDIO
    TITLE "7:cjc128_2580"
    INDEX 01 01:17:22
  TRACK 43 AUDIO
    TITLE "0:"
    INDEX 01 01:20:02
  TRACK 44 AUDIO
    TITLE "8:cjc128_2581"
    INDEX 01 01:23:32
  TRACK 45 AUDIO
    TITLE "0:"
    INDEX 01 01:24:73
  TRACK 46 AUDIO
    TITLE "7:cjc128_2582"
    INDEX 01 01:25:57
  TRACK 47 AUDIO
    TITLE "0:"
    INDEX 01 01:28:12
  TRACK 48 AUDIO
    TITLE "8:cjc128_2583"
    INDEX 01 01:31:04
  TRACK 49 AUDIO
    TITLE "0:"
    INDEX 01 01:32:35
  TRACK 50 AUDIO
    TITLE "7:cjc128_2584"
    INDEX 01 01:33:09
  TRACK 51 AUDIO
    TITLE "0:"
    INDEX 01 01:35:10
  TRACK 52 AUDIO
    TITLE "8:cjc128_2585"
    INDEX 01 01:37:40
  TRACK 53 AUDIO
    TITLE "0:"
    INDEX 01 01:39:04
  TRACK 54 AUDIO
    TITLE "7:cjc128_2586"
    INDEX 01 01:39:59
  TRACK 55 AUDIO
    TITLE "0:"
    INDEX 01 01:41:59
  TRACK 56 AUDIO
    TITLE "8:cjc128_2587"
    INDEX 01 01:44:11
  TRACK 57 AUDIO
    TITLE "0:"
    INDEX 01 01:45:14
  TRACK 58 AUDIO
    TITLE "7:cjc128_2588"
    INDEX 01 01:46:00
  TRACK 59 AUDIO
    TITLE "0:"
    INDEX 01 01:47:74
  TRACK 60 AUDIO
    TITLE "8:cjc128_2589"
    INDEX 01 01:50:64
  TRACK 61 AUDIO
    TITLE "0:"
    INDEX 01 01:52:12
  TRACK 62 AUDIO
    TITLE "7:cjc128_2590"
    INDEX 01 01:52:69
  TRACK 63 AUDIO
    TITLE "0:"
    INDEX 01 01:54:66
  TRACK 64 AUDIO
    TITLE "8:cjc128_2591"
    INDEX 01 01:58:01
  TRACK 65 AUDIO
    TITLE "0:"
    INDEX 01 01:59:22
  TRACK 66 AUDIO
    TITLE "7:cjc128_2592"
    INDEX 01 02:00:06
  TRACK 67 AUDIO
    TITLE "0:"
    INDEX 01 02:02:28
  TRACK 68 AUDIO
    TITLE "8:cjc128_2593"
    INDEX 01 02:05:15
  TRACK 69 AUDIO
    TITLE "0:"
    INDEX 01 02:06:40
  TRACK 70 AUDIO
    TITLE "7:cjc128_2594"
    INDEX 01 02:07:22
  TRACK 71 AUDIO
    TITLE "0:"
    INDEX 01 02:09:30
  TRACK 72 AUDIO
    TITLE "8:cjc128_2595"
    INDEX 01 02:11:74
  TRACK 73 AUDIO
    TITLE "0:"
    INDEX 01 02:13:20
  TRACK 74 AUDIO
    TITLE "7:cjc128_2596"
    INDEX 01 02:14:06
  TRACK 75 AUDIO
    TITLE "0:"
    INDEX 01 02:16:28
  TRACK 76 AUDIO
    TITLE "8:cjc128_2597"
    INDEX 01 02:19:17
  TRACK 77 AUDIO
    TITLE "0:"
    INDEX 01 02:20:48
  TRACK 78 AUDIO
    TITLE "7:cjc128_2598"
    INDEX 01 02:21:26
  TRACK 79 AUDIO
    TITLE "0:"
    INDEX 01 02:23:28
  TRACK 80 AUDIO
    TITLE "8:cjc128_2599"
    INDEX 01 02:25:61
  TRACK 81 AUDIO
    TITLE "0:"
    INDEX 01 02:27:14
  TRACK 82 AUDIO
    TITLE "7:cjc128_2600"
    INDEX 01 02:27:67
  TRACK 83 AUDIO
    TITLE "0:"
    INDEX 01 02:30:29
  TRACK 84 AUDIO
    TITLE "8:cjc128_2601"
    INDEX 01 02:33:21
  TRACK 85 AUDIO
    TITLE "0:"
    INDEX 01 02:34:50
  TRACK 86 AUDIO
    TITLE "7:cjc128_2602"
    INDEX 01 02:35:30
  TRACK 87 AUDIO
    TITLE "0:"
    INDEX 01 02:37:34
  TRACK 88 AUDIO
    TITLE "8:cjc128_2603"
    INDEX 01 02:40:21
  TRACK 89 AUDIO
    TITLE "0:"
    INDEX 01 02:41:40
  TRACK 90 AUDIO
    TITLE "7:cjc128_2604"
    INDEX 01 02:42:18
  TRACK 91 AUDIO
    TITLE "0:"
    INDEX 01 02:44:58
  TRACK 92 AUDIO
    TITLE "8:cjc128_2605"
    INDEX 01 02:47:56
  TRACK 93 AUDIO
    TITLE "0:"
    INDEX 01 02:49:04
  TRACK 94 AUDIO
    TITLE "7:cjc128_2606"
    INDEX 01 02:49:59
  TRACK 95 AUDIO
    TITLE "0:"
    INDEX 01 02:52:38
  TRACK 96 AUDIO
    TITLE "8:cjc128_2607"
    INDEX 01 02:55:66
  TRACK 97 AUDIO
    TITLE "0:"
    INDEX 01 02:56:73
  TRACK 98 AUDIO
    TITLE "7:cjc128_2608"
    INDEX 01 02:57:59
  TRACK 99 AUDIO
    TITLE "0:"
    INDEX 01 03:00:10
